<svg id="Layer_1" data-name="Layer 1" xmlns="http://www.w3.org/2000/svg" viewBox="0 0 9973.76 9714.87"><defs><style>.cls-1,.cls-2{stroke:#000;stroke-miterlimit:10;}.cls-2,.cls-3{fill:#fff;}</style></defs><path d="M1202.67,9985.52c-71.85-20.17-128.12-68.44-168-144.13L1003,9802.58V9560.34c16.91-133.24,18.41-278.59,50-323v-80.75l-78.34-102.77c-85.6-190.4-118.35-311.9-118.17-438.31.2-92.09,13.75-153.31,49-220.46C978.2,8256.76,1176,8132.43,1325,8131.44c46-.4,60.65,3,101.16,23,80.88,39.82,148.71,122,185.84,225.15,8.5,23.62,29.89,104.06,47.53,178.76L1691.56,8710h90.77c93.27-17.73,187.63-30.47,890.93-136.89,161.5-24.44,465.42-70.18,675.37-101.64l381.73-57.21,1.92-25.24c1.08-13.89-1-29.65-4.47-35-7.82-12-104.41-28.72-364.49-63.21-109-14.46-249.41-34.44-312-44.41s-260.78-39.71-440.45-66.09-387.79-57.75-462.48-69.7c-140.47-22.47-251.62-38.58-484.5-70.22-74.7-10.15-183.71-26.48-242.25-36.28-235.38-39.44-395.73-55.71-415.12-42.12-12.58,8.82-36.47,45.74-84.58,130.72-67.8,119.78-119.54,189.93-197.36,267.59-108.2,108-186.77,142.36-323.33,141.56C270.5,8501,165.53,8456.38,79.79,8365c-91.05-97-89.12-162.55,10.54-358.33,48.81-95.9,98.31-170.53,183.37-276.49,35.84-44.65,76.29-99.54,89.88-122l24.72-40.82L364.57,7437c-49.43-271.5-25.48-418.93,87.72-539.89,75.15-80.3,166.71-122.95,295.17-137.5,81.06-9.18,136.33-1.24,198.76,28.59,146.32,69.91,198,183.52,218.79,481,9.6,137.26,16.69,163.71,48.83,182.43,16.79,9.79,186.21,40.62,598.28,108.9,316.17,52.39,768.11,128.05,1004.3,168.13,958.75,162.73,1517.56,254.05,1890.29,308.95,109,16.05,267.58,41,352.37,55.41,210.6,35.83,303,36.48,477.16,3.36,365.43-69.47,2449-523.26,2885-628.34,60.56-14.6,179.45-41.48,264.2-59.75,161.22-34.75,223.55-57.34,243.9-88.4,6.63-10.13,14.73-37.94,18-61.81,14.72-107.7,71.76-268,123.16-346.18,109.28-166.19,275.77-238.06,466.56-201.38,76.65,14.73,107.6,28.48,148,65.69,64.25,59.22,87.25,130.21,86.21,266.09-.65,83-4.78,114.08-31.74,238.58-17.75,81.95-31.21,163.89-31.48,191.66-.58,59.83,9.64,83.17,109.53,249.78,97.87,163.25,154.85,278.47,164.68,333,10.05,55.82,4.26,155.65-10.73,184.62-35.65,69-183.3,127.88-321.12,128.18-127.42.4-221.09-34.21-320-117.77-59.32-50.13-84-79.73-153.31-183.48-45.57-68.24-55.68-79-86.14-91.62l-34.5-14.3-79,16.52c-43.47,9.08-126.94,24.29-185.48,33.79s-165.91,29-238.58,43.31-300.61,55.68-506.53,91.91c-711.7,125.22-800.54,141.11-891.92,159.46-121.55,24.42-150.52,44.18-106.8,72.82,31.39,20.57,83.29,32.15,260.65,58.14,95.05,13.93,257.51,38.63,361,54.89,328.06,51.53,533.74,81.07,564.52,81.07,47.2,0,68.64-16.6,125.67-97.3,61.41-86.88,187.05-215.4,254.69-260.54,60-40,105.91-53.27,184.11-53.17,99.34,0,163.27,22.85,255.43,90.75,52.81,38.91,90.43,86.71,113.39,144.08,21.57,53.91,23.56,192.63,3.21,223.7-7.06,10.77-17.6,33.1-23.43,49.62-20.42,57.86-103.3,177.19-207.29,298.45-66.64,77.71-58.1,48.82-75.12,254.08-26.79,323.14-91,475-229.6,543.21-66.68,32.82-143.54,48.87-232.9,48.63-140.51-.4-212.09-33-275.36-125.65-57.55-84.22-68.86-130.51-90.07-368.53-3.93-44.2-10.91-78.15-18.41-89.59-16.85-25.7-91.83-48-299.78-89-94.16-18.57-220.74-45.08-281.31-58.91s-192.7-41.45-293.63-61.39c-180-35.56-401.47-81.7-745.11-155.25-94.88-20.31-215.45-45.39-267.94-55.75s-146.32-30.26-208.52-44.21-176.17-38.17-253.26-53.8-179.82-37.17-228.27-47.87c-113.83-25.14-154.26-24.25-324,7.15-172.09,31.84-1052.66,207.23-1199.28,238.87-179.64,38.76-811.26,168.08-1325,271.28-121.12,24.33-254.91,52.33-297.3,62.22s-101.86,21.75-132.14,26.35-84.79,16.18-121.13,25.73-103.83,24.41-150,33c-93,17.36-131.72,33.55-152.92,64-23,33.08-30.52,64.26-46.07,192.42-8.12,66.86-21.32,145.68-29.34,175.15-28.64,105.25-80.1,182-143.78,214.33-33.32,16.93-44.25,18.32-156.94,19.82-89.37,1.21-131.38-1.28-160.25-9.37Z" transform="translate(-13.47 -280.29)"/><path class="cls-1" d="M7584.22,2490c-377.15-490.28-1922.31-2209.19-2595-2209.19v0c-672.35,0-2217.74,1718.91-2594.79,2209.19-928.13,1206.72-967.68,1771.87-897.8,2035.3,126.32,475.16,659.61,524.07,1457.91,528,110.12,286.7,107.6,724.73,74.7,866.25-6.16,13.55-14.13,29-23.13,46.76-332,660.78-174.37,1121.31,400.41,1561,109.35,83.66,232.56,153,232.56,153s102-35.68,206.64-132.88c83.84-77.85,171.14-230.81,190.62-340.16,88.88,452.38,533.48,621,533.48,621s371.07-123.75,419.31-507.65c48.33,383.9,419.49,507.65,419.49,507.65s444.55-168.58,533.47-621c19.53,109.35,106.7,262.26,190.53,340.16,104.76,97.2,206.64,132.88,206.64,132.88s123.21-69.34,232.56-153c574.83-439.69,732.47-900.27,400.46-1561-8.91-17.78-17.1-33.21-23.13-46.76-32.9-141.52-35.46-579.55,74.74-866.25,798.35-4,1331.56-52.92,1457.78-528,70.15-263.43,30.64-828.58-897.48-2035.3" transform="translate(-13.47 -280.29)"/><path class="cls-2" d="M6212.1,6781.8c-135.72-32.44-264.2,45.95-275.27,187.56-9.49,120.15,40,233.87,175.68,266.4,136,32.45,260.06-11.88,307.8-122.53,60.66-140.81-72.31-299-208.21-331.43" transform="translate(-13.47 -280.29)"/><path class="cls-2" d="M6091.86,6077.69c-27.5-125.6-197-153.81-310.41-93.24s-172,177.52-100,312.34c52.2,98,140.36,152.78,299.79,67.68,113.4-60.61,134.64-178.33,110.66-286.78" transform="translate(-13.47 -280.29)"/><path class="cls-2" d="M6765.28,6127.28c-217.53-37.89-394.87,201.19-394.87,402.34s152.82,354.65,354.82,323.1c171.54-26.82,314.51-134.19,314.51-335.29s-103.5-360.36-274.46-390.15" transform="translate(-13.47 -280.29)"/><path class="cls-2" d="M6722.31,5924.42c80-56.25,103.54-170.69,44.46-267.71-59-96.84-153.45-138.69-258.39-83.34-93.25,49.41-134.19,189.59-75.15,286.43s206.82,122.44,289.08,64.62" transform="translate(-13.47 -280.29)"/><path class="cls-2" d="M4196.14,6267.9c104.4-55.71,123.93-164.16,101.79-264-25.29-115.47-181.21-141.53-285.66-85.86s-158.4,163.57-92.11,287.68c48.1,90.05,129.15,140.49,276,62.19" transform="translate(-13.47 -280.29)"/><path class="cls-2" d="M4850.22,6193.38c-150.84-26.28-274.05,139.68-274.05,279.32s106.24,246.19,246.37,224.37c119.07-18.81,218.43-93.24,218.43-232.92s-72-250.11-190.75-270.77" transform="translate(-13.47 -280.29)"/><path class="cls-2" d="M5369.34,5817.9c-56.61-92.79-147-133-247.59-79.87-89.37,47.38-128.57,181.75-72.09,274.68s198.18,117.22,277,61.87c76.81-54,99.22-163.62,42.66-256.68" transform="translate(-13.47 -280.29)"/><path class="cls-2" d="M4405.53,6696.44c-185.72-44.37-361,63-376.43,256.36-13,164.25,54.59,319.91,240.3,364.23s355.41-16.24,420.66-167.53c82.67-192.38-98.82-408.56-284.53-453.06" transform="translate(-13.47 -280.29)"/><path class="cls-2" d="M5394.63,6823.88c-90.27-25.29-166.64,74-166.64,167.8s55.31,171.72,166.64,171.72c81,0,146.52-38,146.52-169.78,0-93.6-68.54-147.74-146.52-169.74" transform="translate(-13.47 -280.29)"/><path class="cls-2" d="M3257.85,6193.38c-150.93-26.28-274,139.68-274,279.32s106.15,246.19,246.37,224.37c118.94-18.81,218.34-93.24,218.34-232.92s-71.95-250.11-190.75-270.77" transform="translate(-13.47 -280.29)"/><path class="cls-2" d="M3537.16,5656.71c-59-96.84-153.36-138.78-258.3-83.34-93.15,49.41-134.19,189.59-75.15,286.43s206.82,122.44,289.08,64.62c80-56.25,103.5-170.69,44.37-267.71" transform="translate(-13.47 -280.29)"/><path class="cls-2" d="M3677.16,6717c-96-27-177.12,78.57-177.12,178.25s58.63,182.38,177.12,182.38c86,0,155.65-40.27,155.65-180.36,0-99.58-72.85-157.14-155.65-180.27" transform="translate(-13.47 -280.29)"/><path class="cls-3" d="M5682.58,3037.76c-406.93,34.69-514.53,205.15-670.86,205.15S4748.07,3072.5,4341,3037.76C3533,2968.05,3144.31,3590.67,3144.31,4208.48,3144.31,4864.94,3604,5397,4171,5397c538.25,0,588.24-223.43,840.69-223.43s302.72,223.43,841,223.43c567,0,1026.72-532.08,1026.72-1188.54,0-617.81-388.75-1240.43-1196.82-1170.72" transform="translate(-13.47 -280.29)"/><path class="cls-1" d="M7606.65,2490c-377.1-490.28-1922.36-2209.23-2595-2209.23-672.35,0-2217.74,1719-2594.79,2209.23-928.13,1206.63-967.68,1771.87-897.8,2035.3,126.32,475.25,659.52,524.07,1457.91,528.12,110,286.61,107.6,724.59,74.79,866.16-6.25,13.55-14.22,29-23.22,46.76-332,660.69-174.37,1121.31,400.41,1561,109.35,83.74,232.56,153.09,232.56,153.09s102-35.69,206.55-132.89c83.93-77.85,171.23-230.8,190.71-340.15,88.88,452.38,533.48,620.95,533.48,620.95s371.07-123.75,419.31-507.64c48.42,383.89,419.49,507.64,419.49,507.64s444.55-168.57,533.48-620.95c19.52,109.35,106.69,262.26,190.53,340.15,104.76,97.2,206.63,132.89,206.63,132.89s123.21-69.35,232.57-153.09c574.83-439.65,732.51-900.27,400.45-1561-8.87-17.78-17.1-33.21-23.18-46.76-32.84-141.57-35.41-579.55,74.79-866.16,798.35-4,1331.51-52.92,1457.78-528.12,70.15-263.43,30.6-828.67-897.48-2035.3M8126.4,4356.17c-99.72,375.57-1239.84,441-1239.84,441s-379.94,822-263.43,1231.07c45.36,159.52,519.07,725.62-262.26,1220.89,0,0-439.7-275.71-463.55-835.92,3.42,58.1,38.25,814.68-457.11,997.92-.45-.09-428-90.72-428.53-945.36-.54,854.64-428.22,945.27-428.4,945.36-495.27-183.24-460.53-939.82-457.11-997.92-23.81,560.21-463.64,835.92-463.64,835.92C2881.2,6753.9,3354.91,6187.8,3400.18,6028.28c116.73-409.14-263.34-1231.07-263.34-1231.07s-1140.21-65.47-1239.88-441C1680,3539.42,4485.67,533.91,5011.63,533.91c525.74,0,3331.71,3005.51,3114.77,3822.26" transform="translate(-13.47 -280.29)"/><path d="M5696,3014.22c-415.08,35.39-524.82,209.25-684.28,209.25s-268.93-173.82-684.09-209.25C3503.4,2943.12,3107,3578.19,3107,4208.35c0,669.59,468.87,1212.31,1047.26,1212.31,549,0,600-227.89,857.5-227.89s308.77,227.89,857.78,227.89c578.34,0,1047.25-542.72,1047.25-1212.31,0-630.16-396.53-1265.23-1220.75-1194.13m107.05,2035.17c-349,0-649.94-218.74-791.37-534.91-141.26,316.12-442.26,534.91-791.19,534.91-484.29,0-877.14-421.51-877.14-941,0-519.7,392.85-941,877.14-941,348.93,0,649.93,218.75,791.19,535,141.43-316.22,442.35-535,791.37-535,484.47,0,877.14,421.34,877.14,941,0,519.53-392.67,941-877.14,941" transform="translate(-13.47 -280.29)"/><path class="cls-1" d="M4287.9,4293.71c-286.7,0-519.08-219.47-519.08-490.1s232.38-490.18,519.08-490.18,518.89,219.46,518.89,490.18-232.29,490.1-518.89,490.1" transform="translate(-13.47 -280.29)"/><path class="cls-1" d="M5735.64,4293.71c-286.61,0-519.08-219.47-519.08-490.1s232.47-490.18,519.08-490.18,519,219.46,519,490.18-232.29,490.1-519,490.1" transform="translate(-13.47 -280.29)"/><path class="cls-2" d="M4848.52,6193.66c-150.84-26.28-274.05,139.68-274.05,279.32s106.24,246.19,246.37,224.37c119.07-18.81,218.44-93.24,218.44-232.92s-72-250.11-190.76-270.77" transform="translate(-13.47 -280.29)"/></svg>